# xmcd CD database file
#
# Track frame offsets:
#	150
#	10278
#	44708
#	66570
#	75953
#	94068
#	116553
#	139358
#	168428
#
# Disc length: 2608 seconds
#
# Revision: 2
# Processed by: cddbd v1.5.2PL0 Copyright (c) Steve Scherf et al.
# Submitted via: CDex 1.51
#
DISCID=7a0a2e09
DTITLE=Marvin Gaye - Live In Montreux 1980 (Disc-1)
DYEAR=2003
DGENRE=Soul
TTITLE0=Time (To Get It Together)
TTITLE1=Got To Give It Up
TTITLE2=A Funky Space Reincarnation
TTITLE3=After The Dance (Hellos)
TTITLE4=Come Get To This
TTITLE5=Let's Get It On
TTITLE6=After The Dance
TTITLE7=If This World Were Mine - Ain't Nothing Like The Real Thing - Ain't No Mountain High Enough
TTITLE8=How Sweet It Is (To Be Loved By You)
EXTD=YEAR: 2003
EXTT0=
EXTT1=
EXTT2=
EXTT3=
EXTT4=
EXTT5=
EXTT6=
EXTT7=
EXTT8=
PLAYORDER=
